<?xml version="1.0" encoding="utf-8"?>
<!-- Generator: Adobe Illustrator 23.1.0, SVG Export Plug-In . SVG Version: 6.00 Build 0)  -->
<svg version="1.1" id="_x31_" xmlns="http://www.w3.org/2000/svg" xmlns:xlink="http://www.w3.org/1999/xlink" x="0px" y="0px"
	 viewBox="0 0 1280.00012 799.99994" style="enable-background:new 0 0 1280.00012 799.99994;" xml:space="preserve">
<style type="text/css">
	.st0{fill-rule:evenodd;clip-rule:evenodd;fill:#F39300;}
</style>
<path class="st0" d="M778.31195,308.63467c-104.68677,0-209.37384,0-314.06061,0c-37.9093,0-124.78586-3.52634-152.6886,3.31528
	c-19.14185,4.69363-26.48511,11.26077-37.92813,19.79346c-19.36298,14.43863-30.94888,38.15527-32.95161,62.39182v14.95221
	c0.7928,9.46115,3.11891,18.72449,7.09561,27.25824c4.94328,10.60883,15.28908,25.38196,24.83061,32.36276
	c11.81351,8.64276,17.02441,14.72684,37.5625,20.14487c27.52695,7.26205,116.29306,3.68292,154.07962,3.68292
	c104.68677,0,209.37384,0,314.06061,0c-4.34161,6.22198-114.02271,109.17673-141.49957,138.35654
	c-33.59387,35.67542-32.31824,103.08752,20.82617,139.21466c40.34967,27.42896,92.70862,21.06335,128.21594-13.21155
	l339.78711-326.086c13.99866-13.43405,22.00525-20.95203,23.51001-28.02325v-4.85059
	c-2.13831-10.20566-17.7511-22.04855-48.3512-51.41418L839.08344,95.36038c-17.88068-17.15924-34.492-33.04595-52.34283-50.23277
	C734.94965-4.73775,660.6972,7.55149,625.7854,65.20088c-19.33386,31.92538-12.32806,79.8524,10.16595,104.20102
	c6.30121,6.82042,9.99158,11.37379,16.8244,17.90979C670.37024,204.14153,772.98718,301.00394,778.31195,308.63467z"/>
</svg>
